<?xml version="1.0" encoding="utf-8"?>
<!-- Generator: Adobe Illustrator 19.2.1, SVG Export Plug-In . SVG Version: 6.00 Build 0)  -->
<svg version="1.1" id="Capa_1" xmlns="http://www.w3.org/2000/svg" xmlns:xlink="http://www.w3.org/1999/xlink" x="0px" y="0px"
	 viewBox="0 0 595.3 550" style="enable-background:new 0 0 595.3 550;" xml:space="preserve">
<style type="text/css">
	.st0{fill:#54CBD1;}
	.st1{fill:#161717;}
	.st2{fill:#58EDED;}
	.st3{fill:#DEE6E7;}
	.st4{fill:#42E8D8;}
	.st5{fill:#171818;}
	.st6{font-family:'Algerian';}
	.st7{font-size:36px;}
</style>
<path class="st0" d="M481.2,410.6c-0.2,9.7-1.5,19.2-4.7,28.4c-1.6,4.7-3.2,9.5-5.4,13.8c-4.1,7.7-8.3,15.4-14.2,22
	c-3.6,4-7.2,8.1-11.2,11.8c-6.9,6.4-14.6,11.7-22.9,16.2c-6.5,3.5-13.1,6.6-20.2,8.7c-5.4,1.6-10.9,3-16.4,4.2
	c-3.4,0.7-6.9,1-10.4,1.3c-4.3,0.3-8.6,0.7-13,0.6c-4.3-0.1-8.6-0.7-12.8-1.2c-3.6-0.4-7.2-0.9-10.8-1.5c-3.2-0.5-6.5-1.1-9.6-1.9
	c-4.4-1.1-8.8-2.4-13.1-3.9c-7.2-2.4-13.8-5.8-20.3-9.6c-5.3-3.2-10.3-6.8-14.9-11c-2.8-2.6-5.7-5-8.3-7.7c-3-3.3-5.7-7-8.6-10.4
	c-3.5-4-6-8.5-8.2-13.2c-3.4-7.1-6-14.6-7.7-22.3c-0.9-4.3-2.2-8.5-3.1-12.7c-0.8-3.7-1.4-7.5-2-11.3s-1.2-7.7-1.9-11.5
	c-0.9-4.9-1.9-9.7-3-14.6c-1.3-5.7-3.2-11.3-6.2-16.4c-3.9-6.6-8.6-12.6-15.2-16.7c-5.4-3.4-11.2-6.2-17.5-7.5
	c-4.3-0.9-8.5-1.9-12.8-2.7c-2.3-0.4-4.6-0.4-6.9-0.7c-4-0.5-7.9-0.9-11.8-1.6c-3.5-0.7-7-1.6-10.4-2.6c-4.4-1.3-8.7-2.7-12.9-4.5
	c-6.5-2.8-12.9-6.1-18.8-10.1c-6.3-4.2-12.1-9-17.2-14.6c-4.3-4.7-8.3-9.7-11.1-15.4c-3-6.1-5.4-12.5-6.1-19.2
	c-0.5-4.8-0.3-9.7-0.1-14.5c0.3-6.1,2-11.8,4.9-17.2c2.3-4.2,4.8-8.1,8.6-11.2c3.9-3.1,7.4-6.7,11.5-9.4c6.1-4.2,12.7-7.8,19-11.8
	c5.5-3.4,10.9-6.9,16.2-10.6c3.6-2.5,7-5.5,10.3-8.4c1.9-1.7,3.4-3.8,5.2-5.7c4.6-4.7,7.8-10.3,10.6-16.1c2.7-5.5,4.3-11.4,6-17.3
	c1.9-6.5,3.9-13.1,8.2-18.6c2.2-2.7,4.4-5.6,7.2-7.6c5.8-4.1,12.1-7.2,19.3-8c3.5-0.4,7-0.9,10.6-1.2c3.3-0.2,6.6-0.4,9.8-0.3
	c5.9,0.3,11.8,0.7,17.7,1.2c3.7,0.3,7.5,0.6,11.2,0.9c3.7,0.4,7.5,0.8,11.2,1.2c1.5,0.2,3.1,0.3,4.7,0.3c7.2,0.1,14.5,0.5,21.7,0.2
	c6.7-0.3,13.3-1.5,19.7-3.6c6.6-2.2,12.2-5.9,17.3-10.6c5.1-4.8,10.2-9.5,15.7-13.8c4.5-3.5,9.3-6.7,14.3-9.4
	c5.7-3.2,11.7-6,17.8-8.4c5.4-2.1,11-3.6,16.7-4.8c3.8-0.9,7.7-1,11.6-1.3c3.7-0.3,7.5-0.5,11.2-0.3c7.2,0.5,14.3,1.9,21.1,4.5
	c5.8,2.2,11.1,5.2,15.9,9c5.3,4.2,10,8.9,13.6,14.5c1.9,2.9,3.6,6,5.3,9c3.7,6.5,5.7,13.5,6.7,20.9c0.6,5,1.2,10,1.2,15
	c-0.1,7.5-1.2,15-3.4,22.3c-1,3.2-1.8,6.4-3.2,9.4c-2.7,5.7-5.6,11.4-8.7,16.8c-2.1,3.6-4.7,6.9-7.3,10.2c-2.3,2.9-4.9,5.5-7.3,8.3
	s-4.8,5.6-7.2,8.4c-1.5,1.7-3.2,3.3-4.7,5c-3.1,3.6-6.1,7.1-9,10.9c-3.5,4.5-6.9,9-10,13.7c-4.2,6.3-7.2,13.1-9.6,20.3
	c-1.6,5-2.3,10-2,15.1c0.2,3.2,0.5,6.4,1.6,9.4c2.6,7.6,6.5,14.5,11.7,20.7c5.1,6.2,9.9,12.8,14.7,19.3c1.7,2.3,3.1,4.8,4.8,7
	c6,7.9,10.5,16.7,15.1,25.4c4.2,8,7.3,16.4,9.4,25.1c1.1,4.4,1.7,8.9,2.3,13.4C480.8,403.6,480.9,407.1,481.2,410.6z"/>
<path class="st1" d="M493,407.3c-0.2,9.7-1.5,19.2-4.7,28.4c-1.6,4.7-3.2,9.5-5.4,13.8c-4.1,7.7-8.3,15.4-14.2,22
	c-3.6,4-7.2,8.1-11.2,11.8c-6.9,6.4-14.6,11.7-22.9,16.2c-6.5,3.5-13.1,6.6-20.2,8.7c-5.4,1.6-10.9,3-16.4,4.2
	c-3.4,0.7-6.9,1-10.4,1.3c-4.3,0.3-8.6,0.7-13,0.6c-4.3-0.1-8.6-0.7-12.8-1.2c-3.6-0.4-7.2-0.9-10.8-1.5c-3.2-0.5-6.5-1.1-9.6-1.9
	c-4.4-1.1-8.8-2.4-13.1-3.9c-7.2-2.4-13.8-5.8-20.3-9.6c-5.3-3.2-10.3-6.8-14.9-11c-2.8-2.6-5.7-5-8.3-7.7c-3-3.3-5.7-7-8.6-10.4
	c-3.5-4-6-8.5-8.2-13.2c-3.4-7.1-6-14.6-7.7-22.3c-0.9-4.3-2.2-8.5-3.1-12.7c-0.8-3.7-1.4-7.5-2-11.3s-1.2-7.7-1.9-11.5
	c-0.9-4.9-1.9-9.7-3-14.6c-1.3-5.7-3.2-11.3-6.2-16.4c-3.9-6.6-8.6-12.6-15.2-16.7c-5.4-3.4-11.2-6.2-17.5-7.5
	c-4.3-0.9-8.5-1.9-12.8-2.7c-2.3-0.4-4.6-0.4-6.9-0.7c-4-0.5-7.9-0.9-11.8-1.6c-3.5-0.7-7-1.6-10.4-2.6c-4.4-1.3-8.7-2.7-12.9-4.5
	c-6.5-2.8-12.9-6.1-18.8-10.1c-6.3-4.2-12.1-9-17.2-14.6c-4.3-4.7-8.3-9.7-11.1-15.4c-3-6.1-5.4-12.5-6.1-19.2
	c-0.5-4.8-0.3-9.7-0.1-14.5c0.3-6.1,2-11.8,4.9-17.2c2.3-4.2,4.8-8.1,8.6-11.2c3.9-3.1,7.4-6.7,11.5-9.4c6.1-4.2,12.7-7.8,19-11.8
	c5.5-3.4,10.9-6.9,16.2-10.6c3.6-2.5,7-5.5,10.3-8.4c1.9-1.7,3.4-3.8,5.2-5.7c4.6-4.7,7.8-10.3,10.6-16.1c2.7-5.5,4.3-11.4,6-17.3
	c1.9-6.5,3.9-13.1,8.2-18.6c2.2-2.7,4.4-5.6,7.2-7.6c5.8-4.1,12.1-7.2,19.3-8c3.5-0.4,7-0.9,10.6-1.2c3.3-0.2,6.6-0.4,9.8-0.3
	c5.9,0.3,11.8,0.7,17.7,1.2c3.7,0.3,7.5,0.6,11.2,0.9c3.7,0.4,7.5,0.8,11.2,1.2c1.5,0.2,3.1,0.3,4.7,0.3c7.2,0.1,14.5,0.5,21.7,0.2
	c6.7-0.3,13.3-1.5,19.7-3.6c6.6-2.2,12.2-5.9,17.3-10.6c5.1-4.8,10.2-9.5,15.7-13.8c4.5-3.5,9.3-6.7,14.3-9.4
	c5.7-3.2,11.7-6,17.8-8.4c5.4-2.1,11-3.6,16.7-4.8c3.8-0.9,7.7-1,11.6-1.3c3.7-0.3,7.5-0.5,11.2-0.3c7.2,0.5,14.3,1.9,21.1,4.5
	c5.8,2.2,11.1,5.2,15.9,9c5.3,4.2,10,8.9,13.6,14.5c1.9,2.9,3.6,6,5.3,9c3.7,6.5,5.7,13.5,6.7,20.9c0.6,5,1.2,10,1.2,15
	c-0.1,7.5-1.2,15-3.4,22.3c-1,3.2-1.8,6.4-3.2,9.4c-2.7,5.7-5.6,11.4-8.7,16.8c-2.1,3.6-4.7,6.9-7.3,10.2c-2.3,2.9-4.9,5.5-7.3,8.3
	s-4.8,5.6-7.2,8.4c-1.5,1.7-3.2,3.3-4.7,5c-3.1,3.6-6.1,7.1-9,10.9c-3.5,4.5-6.9,9-10,13.7c-4.2,6.3-7.2,13.1-9.6,20.3
	c-1.6,5-2.3,10-2,15.1c0.2,3.2,0.5,6.4,1.6,9.4c2.6,7.6,6.5,14.5,11.7,20.7c5.1,6.2,9.9,12.8,14.7,19.3c1.7,2.3,3.1,4.8,4.8,7
	c6,7.9,10.5,16.7,15.1,25.4c4.2,8,7.3,16.4,9.4,25.1c1.1,4.4,1.7,8.9,2.3,13.4C492.6,400.3,492.7,403.8,493,407.3z"/>
<path class="st0" d="M163.9,388.2c0,7.4-1.4,14.5-4.9,21c-1.3,2.4-2.9,4.6-4.6,6.7c-3.7,4.4-8.1,7.9-13.3,10.3
	c-4.8,2.2-9.6,3.9-14.9,4.5c-8.1,0.8-16,0.3-23.7-2.4c-7.6-2.7-14.3-6.7-19.6-12.8c-2-2.3-3.6-4.9-5.3-7.4c-3.3-5-5-10.7-5.5-16.6
	c-0.6-7.4,0.1-14.7,3.3-21.6c2.2-4.8,5-9.2,8.8-12.8c2.3-2.3,4.6-4.7,7.2-6.5c4.2-2.9,8.9-5.1,13.9-6.7c6.4-2,12.9-3,19.5-2.5
	c7,0.6,13.6,2.5,19.5,6.4c4.3,2.9,7.7,6.8,10.8,10.9c3.6,4.8,5.8,10.2,7.2,15.8c1.1,4.5,1.5,9.1,2.2,13.7
	C164.2,388.1,164.1,388.1,163.9,388.2z"/>
<path class="st1" d="M171.7,381.2c0,7.4-1.4,14.5-4.9,21c-1.3,2.4-2.9,4.6-4.6,6.7c-3.7,4.4-8.1,7.9-13.3,10.3
	c-4.8,2.2-9.6,3.9-14.9,4.5c-8.1,0.8-16,0.3-23.7-2.4c-7.6-2.7-14.3-6.7-19.6-12.8c-2-2.3-3.6-4.9-5.3-7.4c-3.3-5-5-10.7-5.5-16.6
	c-0.6-7.4,0.1-14.7,3.3-21.6c2.2-4.8,5-9.2,8.8-12.8c2.3-2.3,4.6-4.7,7.2-6.5c4.2-2.9,8.9-5.1,13.9-6.7c6.4-2,12.9-3,19.5-2.5
	c7,0.6,13.6,2.5,19.5,6.4c4.3,2.9,7.7,6.8,10.8,10.9c3.6,4.8,5.8,10.2,7.2,15.8c1.1,4.5,1.5,9.1,2.2,13.7
	C172,381.1,171.9,381.1,171.7,381.2z"/>
<path class="st0" d="M310.7,91.2c-5.3,0.2-10.2-0.9-14.5-3.8c-5.6-3.7-8.6-9-9.2-15.8c-0.6-6.7,0.8-12.9,3.8-18.8
	c2.3-4.6,5.4-8.8,9.6-11.9c4.1-3,8.6-4.8,13.7-5.5c3.5-0.5,7-0.3,10.4,0.7c2,0.6,4,1.4,5.9,2.5c2.3,1.3,4.8,2.2,6.6,4.3
	c4.2,4.9,6.9,10.4,7.1,17c0.1,4.6-0.6,8.9-2.6,12.9c-2.1,4.2-5,7.9-8.8,10.7c-2.9,2.1-5.8,3.9-9.1,5.3
	C319.2,90.5,315,91.4,310.7,91.2z"/>
<path class="st1" d="M316.5,91.2c-5.3,0.2-10.2-0.9-14.5-3.8c-5.6-3.7-8.6-9-9.2-15.8c-0.6-6.7,0.8-12.9,3.8-18.8
	c2.3-4.6,5.4-8.8,9.6-11.9c4.1-3,8.6-4.8,13.7-5.5c3.5-0.5,7-0.3,10.4,0.7c2,0.6,4,1.4,5.9,2.5c2.3,1.3,4.8,2.2,6.6,4.3
	c4.2,4.9,6.9,10.4,7.1,17c0.1,4.6-0.6,8.9-2.6,12.9c-2.1,4.2-5,7.9-8.8,10.7c-2.9,2.1-5.8,3.9-9.1,5.3
	C325,90.5,320.8,91.4,316.5,91.2z"/>
<path class="st0" d="M220,452.2c-7-0.1-13.1-2.5-18.5-6.9c-4.1-3.3-7-7.4-9.5-12c-3.4-6.3-4.5-12.9-4.1-19.9
	c0.2-3.4,1.1-6.9,3.2-9.6c3.1-4.1,7-6.9,12.3-7.7c4.4-0.7,8.6,0.3,12.5,2c4.8,2,9.4,4.6,13.2,8.4c4.8,4.8,7.7,10.7,9.3,17.3
	c1.5,6.2,1,12.2-1.6,18C233.5,448.9,228,452.5,220,452.2z"/>
<path class="st1" d="M224,446.4c-7-0.1-13.1-2.5-18.5-6.9c-4.1-3.3-7-7.4-9.5-12c-3.4-6.3-4.5-12.9-4.1-19.9
	c0.2-3.4,1.1-6.9,3.2-9.6c3.1-4.1,7-6.9,12.3-7.7c4.4-0.7,8.6,0.3,12.5,2c4.8,2,9.4,4.6,13.2,8.4c4.8,4.8,7.7,10.7,9.3,17.3
	c1.5,6.2,1,12.2-1.6,18C237.5,443.1,232,446.7,224,446.4z"/>
<path class="st2" d="M259.2,361.9c0.3-7.2,0.5-14.2,0.8-21.3c0.6-13.3,1.3-26.6,1.9-39.8c0.2-3.6,0.1-3.6,3.8-3.6
	c25.2,0.1,50.5,0.2,75.7,0.2c1,0,2,0.1,3.3,0.1c0.4,21.5,0.8,42.8,1.2,64.3C316.9,361.9,288.2,361.9,259.2,361.9z"/>
<path class="st2" d="M332.8,201.9c-17.5-0.3-31.6-1.7-44.9-7.4c-6.7-2.9-5.6-1.6-4.4-8c1.8-10,4-20,8.6-29.2
	c1.5-2.9,3.2-5.8,5.4-8.1c4.4-4.7,9.4-4.6,13.4,0.3c2.4,3,4,6.7,5.9,10.2c1.5,2.7,2.3,5.9,4.1,8.3c4.6,6.1,11.8,5.7,15.9-0.7
	c1.5-2.4,2.5-5.1,3.9-7.6c1.9-3.4,3.6-7.1,6-10.2c3.8-4.9,9.4-5.1,13.8-0.8c2,1.9,3.7,4.2,5,6.6c6,11,9.2,22.9,11.1,35.2
	c0.3,1.6-0.7,2-1.8,2.6c-7.5,3.8-15.6,6-23.8,7.1C343.9,201.1,336.8,201.5,332.8,201.9z"/>
<path class="st2" d="M326.7,223.2c-12.6,0.2-24.7-2.3-36.7-6c-9.5-2.9-18.8-6.4-27.5-11.4c-3-1.7-5.9-3.9-8.6-6.2
	c-2-1.7-1.6-3.2,1-3.5c7.4-0.8,14.9-1.4,22.3-2.1c0.5,0,1.2,0.2,1.6,0.5c7.5,5.3,16.2,7.3,25,8.9c21.1,3.7,42.1,2.9,62.6-3.8
	c2.7-0.9,5.4-2,7.9-3.4c2.4-1.3,4.8-1.9,7.5-1.7c5.5,0.4,11.1,0.8,16.6,1.2c1,0.1,2,0.3,3,0.6c1.9,0.6,2.5,1.8,1.1,3.3
	c-1.8,1.9-3.7,3.7-5.8,5.1c-8.7,5.6-18.3,9.1-28.2,12C354.9,220.9,340.9,223.1,326.7,223.2z"/>
<path class="st3" d="M361.3,297c2.1,1.9,2.3,3.9,0,5.9c1.9,2,2.4,4,0.1,5.9c2.3,3.4,2.1,4.4-1.3,6.4c-0.5,0.3-0.8,1.1-0.9,1.7
	c-0.2,1,0,2,0,3.2c-2.4,0-4.5,0-6.9,0c0-1.7,0.2-3.4,0-5c-0.4-2.6,0.8-5.6-1.7-7.9c-0.6-0.6,0.2-2.8,0.4-4.3
	c0.3-0.1,0.6-0.1,0.8-0.2c-1-0.8-2-1.6-3.1-2.3c-1.9-1.3-2.4-3.1-1.2-4.7c1-1.4,1.9-3,3.2-4c1.6-1.2,1.6-2.6,1.6-4.2
	c0-4,0-8.1,0-12.2c-13.2-3.1-19.8-11.3-20-25.2c-3.6,0-7.3-0.1-10.9,0.1c-0.4,0-0.9,1-1.2,1.7c-4,10.7-14.6,15.6-25.4,11.7
	c-4.8-1.7-7.7-5.2-9.2-10c-0.4-1.2-0.7-2.2-2.2-2.9c-2.4-1.1-1.4-3.8-1.7-5.9c-0.2-1.5,0.8-1.5,1.8-1.8c0.5-0.1,1-0.9,1.1-1.5
	c1.2-5.3,4.7-8.1,9.9-8.7c5.8-0.7,11.6-0.8,17.2,1.1c4.9,1.7,8.3,4.7,9.3,10c0.3,1.4,0.9,1.9,2.2,1.7c0.7-0.1,1.4-0.1,2,0
	c5.1,0.6,8.6-0.3,11.5-5.7c4.7-8.8,15.5-11.9,25.1-9c9.5,2.9,15.9,11.4,16,21.3c0.1,10.2-6.1,19-15.8,21.9c-2.3,0.7-2.8,1.7-2.7,3.8
	c0.2,3.4,0,6.9,0.1,10.4c0,0.8,0.5,1.8,1.1,2.2C363.4,292.5,363.7,293.8,361.3,297z M373.8,252.8c0.2-10.1-8.2-18.7-18.4-19
	c-10.2-0.3-18.9,8.1-19.1,18.5c-0.2,10.3,8.2,18.9,18.5,19.1C365.2,271.5,373.6,263.3,373.8,252.8z M300.6,234.6
	c0,0.2-0.1,0.3-0.1,0.5c-2,0.2-4,0.2-6,0.5c-4.3,0.6-7,3-7.5,7.3c-0.6,5,0.2,10,3.3,14.1c1.2,1.7,3.1,3.2,5.1,3.9
	c9.6,3.5,20.6-0.3,22.8-12.4c0.9-5.1-1.2-9.6-6.1-11.3C308.4,235.9,304.5,235.5,300.6,234.6z M356.5,292c-1.2,0.1-2.3,0-3.3,0.3
	c-0.7,0.2-1.4,1-1.6,1.6c-0.1,0.4,0.8,1.5,1.3,1.5c2.3,0.2,4.6,0.1,6.9,0c0.5,0,1.3-1,1.2-1.6c0-0.5-0.8-1.3-1.4-1.5
	C358.7,292,357.5,292.1,356.5,292z M356.4,301.8L356.4,301.8c0.9,0,1.9,0.3,2.7,0c0.8-0.3,1.4-1.2,2.1-1.8c-0.7-0.6-1.3-1.5-2-1.6
	c-1.8-0.2-3.7-0.2-5.5,0c-0.7,0.1-1.3,1.1-1.9,1.7c0.6,0.6,1.2,1.4,1.9,1.7C354.5,302,355.5,301.8,356.4,301.8z M356.5,307.9
	c0.8,0,1.8,0.2,2.5-0.1c0.8-0.3,1.5-1.1,2.3-1.6c-0.7-0.6-1.3-1.7-2-1.8c-1.7-0.3-3.5-0.3-5.2,0c-0.8,0.1-1.4,1.1-2.1,1.7
	c0.7,0.6,1.3,1.4,2.2,1.7C354.7,308.1,355.6,307.9,356.5,307.9z M357.5,310.4L357.5,310.4c-0.6,0-1.3-0.2-1.7,0.1
	c-0.7,0.3-1.3,1-2,1.5c0.6,0.5,1.2,1.3,1.9,1.5c0.8,0.3,1.9,0.3,2.7,0c1-0.3,1.9-1,2.8-1.5c-0.9-0.5-1.8-1.1-2.7-1.6
	C358.2,310.3,357.8,310.4,357.5,310.4z M351.5,297.2c0-0.3-0.1-0.6-0.1-0.9c-0.8,0.1-1.9,0-2.3,0.5c-0.4,0.4,0,1.5,0.1,2.3
	c0.2,0,0.5,0,0.7,0C350.4,298.5,351,297.8,351.5,297.2z"/>
<path class="st4" d="M309.9,145.6c3.7,1.2,7.5,2.3,11.2,3.8c6.7,2.7,13.3,2.4,19.8-0.7c1.6-0.8,3.4-1.4,4.4-1.8
	c-2.8,5.5-5.8,11.2-8.7,17c-1.7,3.4-3.8,6.6-8.2,6.5c-4.4-0.1-6.8-3.3-8.5-6.9c-0.5-1-0.9-2-1.2-3
	C316.9,154.9,314.3,149.9,309.9,145.6z"/>
<path class="st3" d="M316.3,280.8c-1.5,5-2.3,5.6-6.2,4.4c-2.7,3.1-3.4,3.2-6.8,0.8c-1.3,1.3-2.7,2.6-4,4c-1.4,1.5-3.7,1.7-4.8,0
	c-1.7-2.6-4.7-4.6-3.7-8.4c-4.1,0.5-6,3.7-6.9,11c-0.7,0.1-1.5,0.1-2.3,0.2c-1.3-5.4,2.2-11.8,7.4-14.2c0.7-0.3,1.6-0.7,2.1-1.3
	c2.4-3.1,3.3-3.3,6.4-0.9c1.9-1.9,4-2.4,6,0c2-2,4-2.2,6-0.1c3.2-2.2,4-2,6.1,0.9c0.4,0.5,1,0.9,1.6,1.1c6,2.6,8.8,7.4,8.4,14.2
	c-0.3,0.1-0.7,0.2-1.1,0.2s-0.8-0.1-0.6,0c-1.3-3.2-2.2-6.1-3.6-8.8C319.5,282.7,317.8,282,316.3,280.8z M296.2,281.6
	c-0.1-1.1,0.1-2.1-0.2-3c-0.3-0.7-1.1-1.3-1.7-1.9c-0.6,0.6-1.6,1.2-1.7,1.9c-0.2,2-0.2,4,0,6c0.1,0.6,1,1.2,1.5,1.7
	c0.6-0.6,1.5-1,1.8-1.7C296.3,283.6,296.2,282.5,296.2,281.6z M298.8,281.2C298.8,281.2,298.7,281.2,298.8,281.2
	c-0.1,0.8-0.3,1.8,0,2.5c0.3,0.8,1,1.5,1.6,2.3c0.6-0.7,1.7-1.4,1.8-2.3c0.3-1.7,0.2-3.5,0-5.2c-0.1-0.7-1.1-1.3-1.7-1.9
	c-0.6,0.6-1.4,1.2-1.7,1.9C298.6,279.3,298.8,280.3,298.8,281.2z M304.6,281.4c0.1,1,0,2.2,0.4,3.2c0.2,0.6,1,1.3,1.5,1.3
	s1.5-0.8,1.5-1.3c0.2-2.2,0.2-4.5,0-6.7c0-0.5-1.1-1.2-1.6-1.2c-0.6,0-1.3,0.8-1.5,1.4C304.7,279.1,304.7,280.3,304.6,281.4z
	 M314.8,280.6c-0.9-1.6-1.6-3.8-2.2-3.8c-2.4,0.1-1.6,2.3-1.6,3.7c0,1.3-0.5,3.3,1.5,3.4C313.1,283.9,313.9,281.9,314.8,280.6z
	 M298.3,286.4c-0.3-0.1-0.7-0.1-1-0.2c-0.7,0.7-1.4,1.4-2.1,2c0.1,0.3,0.1,0.6,0.2,0.8c0.9,0,2.1,0.3,2.5-0.1
	C298.4,288.5,298.2,287.3,298.3,286.4z"/>
<path class="st4" d="M257.5,360.1c-1.6-0.1-2.9-0.1-4.4-0.2c1.8-21.3,3.7-42.9,5.5-64.4c0.3,0,0.6-0.1,1-0.1
	c0.3,1.2,0.8,2.4,0.7,3.5c-0.6,13.9-1.2,27.7-1.9,41.6c-0.3,5.8-0.5,11.6-0.8,17.4C257.7,358.7,257.6,359.6,257.5,360.1z"/>
<path class="st4" d="M261.6,294c4.8,0,9.6,0,14.4,0c20.7,0.1,41.4,0.1,62.1,0.3c1.3,0,2.6,0.5,4,0.7c0,0.3,0,0.6-0.1,0.9
	c-0.7,0.1-1.3,0.2-2,0.2c-25.2-0.1-50.5-0.2-75.7-0.3C263,295.8,261.6,296.1,261.6,294z"/>
<path class="st3" d="M339.6,232c1.4-4,3.5-5.6,6.8-5.6c0.3,0,0.6-0.2,0.9-0.3c6.7-3.4,12.7-0.5,18.8,1.8c-4.5,0-9.2-0.5-13.6,0.1
	C348.3,228.7,344.2,230.6,339.6,232z"/>
<path class="st3" d="M288.8,228.4c6.1-2.3,12.1-5,18.7-1.9c1.3,0.6,2.8,0.9,4.3,1.3c2.1,0.6,2.7,2.4,3.7,4.6
	c-1.4-0.3-2.4-0.2-3.1-0.6C304.8,227.9,297,227.1,288.8,228.4z"/>
<path class="st3" d="M357.7,245.9c-0.1,1.2-0.2,2.3-0.3,3.3c1.1-0.1,2.2-0.3,3.7-0.5c1.7,2.5,1.3,6.1-1.4,8.4
	c-2.6,2.3-6.4,2.2-9-0.1c-2.5-2.2-3.1-5.8-1.3-8.7C351.3,245.4,354.8,244.5,357.7,245.9z"/>
<path class="st3" d="M304.8,244.1c-0.1,0.7-0.1,1.3-0.2,1.9c0.3,0.2,0.4,0.4,0.5,0.3c2-0.2,2.2,0.9,1.9,2.4c-0.5,2.4-2.7,3.9-5,3.5
	c-2.5-0.5-4-3-3.3-5.5C299.4,244.3,301.6,243.3,304.8,244.1z"/>
<text transform="matrix(1 0 0 1 292.4085 341.4105)" class="st5 st6 st7">S</text>
</svg>
