<?xml version="1.0" encoding="utf-8"?>
<!-- Generator: Adobe Illustrator 19.2.1, SVG Export Plug-In . SVG Version: 6.00 Build 0)  -->
<svg version="1.1" id="Capa_1" xmlns="http://www.w3.org/2000/svg" xmlns:xlink="http://www.w3.org/1999/xlink" x="0px" y="0px"
	 viewBox="0 0 343 346" style="enable-background:new 0 0 343 346;" xml:space="preserve">
<style type="text/css">
	.st0{fill:none;stroke:#F1F1F1;stroke-width:20;stroke-miterlimit:10;}
	.st1{fill:#F1F1F1;stroke:#F1F1F1;stroke-miterlimit:10;}
</style>
<circle class="st0" cx="171.5" cy="176.7" r="158.5"/>
<path class="st1" d="M256.8,113.7c-0.4,25.6-27.3,41-49.5,28.3c-1.9-1.1-3.4-1.3-5.5-0.2c-21.9,10.8-43.8,21.4-65.7,32.1
	c-1.4,0.7-3,2.3-3.3,3.7c-0.2,0.9,1.9,2.6,3.3,3.3c21.2,10.4,42.4,20.7,63.6,31.2c2.5,1.2,4.3,1.4,6.8-0.2
	c12.4-7.9,28.6-6.4,39.3,3.3c11,10.1,14.2,26.1,7.7,39.1c-6.7,13.6-21.5,20.8-36.3,18c-14-2.7-24.9-14.7-26.1-29.2
	c-0.3-3.6-1.6-5.4-4.8-7c-21.4-10.3-42.7-20.7-64-31.2c-2.1-1-3.6-1.1-5.8,0.2c-14.1,8.5-32,5.3-42.4-7.2
	c-10.3-12.4-10.1-30.5,0.6-42.7c10.8-12.3,28.6-15,42.5-6.1c2.3,1.5,4,1.5,6.4,0.3c21.3-10.5,42.6-20.9,64-31.2
	c2.3-1.1,3.2-2.3,3.2-5c0.2-18.6,15.3-33,33.9-32.6C242.6,80.9,257.1,96,256.8,113.7z"/>
</svg>
