<?xml version="1.0" encoding="utf-8"?>
<!-- Generator: Adobe Illustrator 19.2.1, SVG Export Plug-In . SVG Version: 6.00 Build 0)  -->
<svg version="1.1" id="Capa_1" xmlns="http://www.w3.org/2000/svg" xmlns:xlink="http://www.w3.org/1999/xlink" x="0px" y="0px"
	 viewBox="0 0 264.7 245.3" style="enable-background:new 0 0 264.7 245.3;" xml:space="preserve">
<style type="text/css">
	.st0{display:none;fill:#FFFFFF;}
	.st1{fill:#0FE3E3;}
	.st2{fill:#DEE6E8;}
	.st3{fill:#00C9C9;}
	.st4{fill:#161717;}
	.st5{font-family:'Algerian';}
	.st6{font-size:36px;}
</style>
<path class="st0" d="M177.8,123.6c-0.2,10.4-8.6,18.7-19,18.6c-10.3-0.1-18.7-8.8-18.5-19.1c0.2-10.4,8.9-18.8,19.1-18.5
	C169.6,104.9,178,113.5,177.8,123.6z M161.7,116.7c-3-1.4-6.4-0.5-8.3,2.5c-1.8,2.8-1.3,6.4,1.3,8.7c2.6,2.3,6.4,2.3,9,0.1
	c2.7-2.3,3-5.9,1.4-8.4c-1.4,0.2-2.5,0.3-3.7,0.5C161.5,118.9,161.6,117.9,161.7,116.7z"/>
<path class="st0" d="M104.6,105.4c3.8,0.8,7.8,1.3,11.4,2.6c4.9,1.7,7,6.3,6.1,11.3c-2.2,12.1-13.3,15.9-22.8,12.4
	c-1.9-0.7-3.8-2.2-5.1-3.9c-3.1-4.2-3.8-9.1-3.3-14.1c0.5-4.3,3.2-6.7,7.5-7.3c2-0.3,4-0.3,6-0.5
	C104.6,105.7,104.6,105.6,104.6,105.4z M108.8,114.9c-3.2-0.8-5.4,0.2-6.1,2.6c-0.7,2.5,0.8,5,3.3,5.5c2.3,0.5,4.5-1.1,5-3.5
	c0.3-1.5,0.1-2.6-1.9-2.4c-0.1,0-0.3-0.2-0.5-0.3C108.7,116.2,108.8,115.6,108.8,114.9z"/>
<path class="st0" d="M160.5,162.8c1,0.1,2.1,0,3.1,0.3c0.6,0.2,1.4,0.9,1.4,1.5c0,0.5-0.8,1.5-1.2,1.6c-2.3,0.2-4.6,0.2-6.9,0
	c-0.5,0-1.4-1.1-1.3-1.5c0.2-0.6,0.9-1.4,1.6-1.6C158.2,162.7,159.4,162.9,160.5,162.8z"/>
<path class="st0" d="M160.4,172.6c-0.9,0-1.9,0.2-2.7-0.1c-0.7-0.3-1.3-1.1-1.9-1.7c0.6-0.6,1.2-1.6,1.9-1.7c1.8-0.2,3.7-0.2,5.5,0
	c0.7,0.1,1.3,1,2,1.6c-0.7,0.6-1.3,1.5-2.1,1.8C162.4,172.8,161.4,172.6,160.4,172.6L160.4,172.6z"/>
<path class="st0" d="M160.5,178.7c-0.8,0-1.8,0.2-2.5-0.1c-0.8-0.3-1.4-1.1-2.2-1.7c0.7-0.6,1.3-1.6,2.1-1.7c1.7-0.3,3.5-0.3,5.2,0
	c0.8,0.1,1.4,1.2,2,1.8c-0.7,0.6-1.4,1.3-2.3,1.6C162.2,178.9,161.3,178.7,160.5,178.7z"/>
<path class="st0" d="M161.5,181.2c0.3,0,0.7-0.1,1,0c0.9,0.5,1.8,1.1,2.7,1.6c-0.9,0.5-1.8,1.2-2.8,1.5c-0.8,0.2-1.9,0.2-2.7,0
	c-0.7-0.2-1.3-1-1.9-1.5c0.7-0.5,1.3-1.1,2-1.5C160.2,181.1,160.9,181.2,161.5,181.2L161.5,181.2z"/>
<path class="st0" d="M155.5,168c-0.5,0.6-1.1,1.2-1.6,1.8c-0.2,0-0.5,0-0.7,0c0-0.8-0.4-1.8-0.1-2.3c0.4-0.5,1.5-0.3,2.3-0.5
	C155.4,167.4,155.5,167.7,155.5,168z"/>
<path class="st0" d="M100.2,152.4c-0.1,0.9,0.1,2-0.2,2.9c-0.3,0.7-1.2,1.1-1.8,1.7c-0.5-0.6-1.4-1.1-1.5-1.7c-0.2-2-0.2-4,0-6
	c0.1-0.7,1.1-1.3,1.7-1.9c0.6,0.6,1.4,1.2,1.7,1.9C100.3,150.3,100.2,151.3,100.2,152.4z"/>
<path class="st0" d="M102.8,152c0-0.9-0.2-1.9,0.1-2.7c0.3-0.7,1.1-1.3,1.7-1.9c0.6,0.6,1.6,1.2,1.7,1.9c0.3,1.7,0.3,3.5,0,5.2
	c-0.1,0.8-1.2,1.5-1.8,2.3c-0.5-0.8-1.3-1.4-1.6-2.3C102.5,153.8,102.7,152.9,102.8,152C102.7,152,102.8,152,102.8,152z"/>
<path class="st0" d="M108.6,152.2c0.1-1.1,0-2.3,0.3-3.3c0.2-0.6,0.9-1.4,1.5-1.4c0.5,0,1.5,0.7,1.6,1.2c0.2,2.2,0.2,4.5,0,6.7
	c0,0.5-1,1.3-1.5,1.3s-1.3-0.8-1.5-1.3C108.7,154.4,108.7,153.2,108.6,152.2z"/>
<path class="st0" d="M118.8,151.4c-0.9,1.4-1.7,3.4-2.4,3.3c-1.9-0.1-1.5-2-1.5-3.4c0.1-1.5-0.7-3.6,1.6-3.7
	C117.2,147.6,117.9,149.8,118.8,151.4z"/>
<path class="st0" d="M102.3,157.2c-0.1,0.9,0.1,2.1-0.4,2.6c-0.4,0.4-1.7,0.1-2.5,0.1c-0.1-0.3-0.1-0.6-0.2-0.8
	c0.7-0.7,1.4-1.4,2.1-2C101.6,157.1,101.9,157.1,102.3,157.2z"/>
<g>
	<path class="st1" d="M64.2,230.7c0.3-7.2,0.5-14.2,0.8-21.3c0.6-13.3,1.3-26.6,1.9-39.8c0.2-3.6,0.1-3.6,3.8-3.6
		c25.2,0.1,50.5,0.2,75.7,0.2c1,0,2,0.1,3.3,0.1c0.4,21.5,0.8,42.8,1.2,64.3C121.9,230.7,93.2,230.7,64.2,230.7z"/>
	<path class="st1" d="M137.8,70.7c-17.5-0.3-31.6-1.7-44.9-7.4c-6.7-2.9-5.6-1.6-4.4-8c1.8-10,4-20,8.6-29.2
		c1.5-2.9,3.2-5.8,5.4-8.1c4.4-4.7,9.4-4.6,13.4,0.3c2.4,3,4,6.7,5.9,10.2c1.5,2.7,2.3,5.9,4.1,8.3c4.6,6.1,11.8,5.7,15.9-0.7
		c1.5-2.4,2.5-5.1,3.9-7.6c1.9-3.4,3.6-7.1,6-10.2c3.8-4.9,9.4-5.1,13.8-0.8c2,1.9,3.7,4.2,5,6.6c6,11,9.2,22.9,11.1,35.2
		c0.3,1.6-0.7,2-1.8,2.6c-7.5,3.8-15.6,6-23.8,7.1C148.9,69.9,141.8,70.3,137.8,70.7z"/>
	<path class="st1" d="M131.7,92c-12.6,0.2-24.7-2.3-36.7-6c-9.5-2.9-18.8-6.4-27.5-11.4c-3-1.7-5.9-3.9-8.6-6.2
		c-2-1.7-1.6-3.2,1-3.5c7.4-0.8,14.9-1.4,22.3-2.1c0.5,0,1.2,0.2,1.6,0.5c7.5,5.3,16.2,7.3,25,8.9c21.1,3.7,42.1,2.9,62.6-3.8
		c2.7-0.9,5.4-2,7.9-3.4c2.4-1.3,4.8-1.9,7.5-1.7c5.5,0.4,11.1,0.8,16.6,1.2c1,0.1,2,0.3,3,0.6c1.9,0.6,2.5,1.8,1.1,3.3
		c-1.8,1.9-3.7,3.7-5.8,5.1c-8.7,5.6-18.3,9.1-28.2,12C159.9,89.7,145.9,91.9,131.7,92z"/>
	<path class="st2" d="M166.3,165.8c2.1,1.9,2.3,3.9,0,5.9c1.9,2,2.4,4,0.1,5.9c2.3,3.4,2.1,4.4-1.3,6.4c-0.5,0.3-0.8,1.1-0.9,1.7
		c-0.2,1,0,2,0,3.2c-2.4,0-4.5,0-6.9,0c0-1.7,0.2-3.4,0-5c-0.4-2.6,0.8-5.6-1.7-7.9c-0.6-0.6,0.2-2.8,0.4-4.3
		c0.3-0.1,0.6-0.1,0.8-0.2c-1-0.8-2-1.6-3.1-2.3c-1.9-1.3-2.4-3.1-1.2-4.7c1-1.4,1.9-3,3.2-4c1.6-1.2,1.6-2.6,1.6-4.2
		c0-4,0-8.1,0-12.2c-13.2-3.1-19.8-11.3-20-25.2c-3.6,0-7.3-0.1-10.9,0.1c-0.4,0-0.9,1-1.2,1.7c-4,10.7-14.6,15.6-25.4,11.7
		c-4.8-1.7-7.7-5.2-9.2-10c-0.4-1.2-0.7-2.2-2.2-2.9c-2.4-1.1-1.4-3.8-1.7-5.9c-0.2-1.5,0.8-1.5,1.8-1.8c0.5-0.1,1-0.9,1.1-1.5
		c1.2-5.3,4.7-8.1,9.9-8.7c5.8-0.7,11.6-0.8,17.2,1.1c4.9,1.7,8.3,4.7,9.3,10c0.3,1.4,0.9,1.9,2.2,1.7c0.7-0.1,1.4-0.1,2,0
		c5.1,0.6,8.6-0.3,11.5-5.7c4.7-8.8,15.5-11.9,25.1-9c9.5,2.9,15.9,11.4,16,21.3c0.1,10.2-6.1,19-15.8,21.9
		c-2.3,0.7-2.8,1.7-2.7,3.8c0.2,3.4,0,6.9,0.1,10.4c0,0.8,0.5,1.8,1.1,2.2C168.4,161.3,168.7,162.6,166.3,165.8z M178.8,121.6
		c0.2-10.1-8.2-18.7-18.4-19s-18.9,8.1-19.1,18.5c-0.2,10.3,8.2,18.9,18.5,19.1C170.2,140.3,178.6,132.1,178.8,121.6z M105.6,103.4
		c0,0.2-0.1,0.3-0.1,0.5c-2,0.2-4,0.2-6,0.5c-4.3,0.6-7,3-7.5,7.3c-0.6,5,0.2,10,3.3,14.1c1.2,1.7,3.1,3.2,5.1,3.9
		c9.6,3.5,20.6-0.3,22.8-12.4c0.9-5.1-1.2-9.6-6.1-11.3C113.4,104.7,109.5,104.3,105.6,103.4z M161.5,160.8c-1.2,0.1-2.3,0-3.3,0.3
		c-0.7,0.2-1.4,1-1.6,1.6c-0.1,0.4,0.8,1.5,1.3,1.5c2.3,0.2,4.6,0.1,6.9,0c0.5,0,1.3-1,1.2-1.6c0-0.5-0.8-1.3-1.4-1.5
		C163.7,160.8,162.5,160.9,161.5,160.8z M161.4,170.6L161.4,170.6c0.9,0,1.9,0.3,2.7,0s1.4-1.2,2.1-1.8c-0.7-0.6-1.3-1.5-2-1.6
		c-1.8-0.2-3.7-0.2-5.5,0c-0.7,0.1-1.3,1.1-1.9,1.7c0.6,0.6,1.2,1.4,1.9,1.7C159.5,170.8,160.5,170.6,161.4,170.6z M161.5,176.7
		c0.8,0,1.8,0.2,2.5-0.1c0.8-0.3,1.5-1.1,2.3-1.6c-0.7-0.6-1.3-1.7-2-1.8c-1.7-0.3-3.5-0.3-5.2,0c-0.8,0.1-1.4,1.1-2.1,1.7
		c0.7,0.6,1.3,1.4,2.2,1.7C159.7,176.9,160.6,176.7,161.5,176.7z M162.5,179.2L162.5,179.2c-0.6,0-1.3-0.2-1.7,0.1
		c-0.7,0.3-1.3,1-2,1.5c0.6,0.5,1.2,1.3,1.9,1.5c0.8,0.3,1.9,0.3,2.7,0c1-0.3,1.9-1,2.8-1.5c-0.9-0.5-1.8-1.1-2.7-1.6
		C163.2,179.1,162.8,179.2,162.5,179.2z M156.5,166c0-0.3-0.1-0.6-0.1-0.9c-0.8,0.1-1.9,0-2.3,0.5c-0.4,0.4,0,1.5,0.1,2.3
		c0.2,0,0.5,0,0.7,0C155.4,167.3,156,166.6,156.5,166z"/>
	<path class="st3" d="M114.9,14.4c3.7,1.2,7.5,2.3,11.2,3.8c6.7,2.7,13.3,2.4,19.8-0.7c1.6-0.8,3.4-1.4,4.4-1.8
		c-2.8,5.5-5.8,11.2-8.7,17c-1.7,3.4-3.8,6.6-8.2,6.5s-6.8-3.3-8.5-6.9c-0.5-1-0.9-2-1.2-3C121.9,23.7,119.3,18.7,114.9,14.4z"/>
	<path class="st2" d="M121.3,149.6c-1.5,5-2.3,5.6-6.2,4.4c-2.7,3.1-3.4,3.2-6.8,0.8c-1.3,1.3-2.7,2.6-4,4c-1.4,1.5-3.7,1.7-4.8,0
		c-1.7-2.6-4.7-4.6-3.7-8.4c-4.1,0.5-6,3.7-6.9,11c-0.7,0.1-1.5,0.1-2.3,0.2c-1.3-5.4,2.2-11.8,7.4-14.2c0.7-0.3,1.6-0.7,2.1-1.3
		c2.4-3.1,3.3-3.3,6.4-0.9c1.9-1.9,4-2.4,6,0c2-2,4-2.2,6-0.1c3.2-2.2,4-2,6.1,0.9c0.4,0.5,1,0.9,1.6,1.1c6,2.6,8.8,7.4,8.4,14.2
		c-0.3,0.1-0.7,0.2-1.1,0.2c-0.4,0-0.8-0.1-0.6,0c-1.3-3.2-2.2-6.1-3.6-8.8C124.5,151.5,122.8,150.8,121.3,149.6z M101.2,150.4
		c-0.1-1.1,0.1-2.1-0.2-3c-0.3-0.7-1.1-1.3-1.7-1.9c-0.6,0.6-1.6,1.2-1.7,1.9c-0.2,2-0.2,4,0,6c0.1,0.6,1,1.2,1.5,1.7
		c0.6-0.6,1.5-1,1.8-1.7C101.3,152.4,101.2,151.3,101.2,150.4z M103.8,150C103.8,150,103.7,150,103.8,150c-0.1,0.8-0.3,1.8,0,2.5
		c0.3,0.8,1,1.5,1.6,2.3c0.6-0.7,1.7-1.4,1.8-2.3c0.3-1.7,0.2-3.5,0-5.2c-0.1-0.7-1.1-1.3-1.7-1.9c-0.6,0.6-1.4,1.2-1.7,1.9
		C103.6,148.1,103.8,149.1,103.8,150z M109.6,150.2c0.1,1,0,2.2,0.4,3.2c0.2,0.6,1,1.3,1.5,1.3s1.5-0.8,1.5-1.3
		c0.2-2.2,0.2-4.5,0-6.7c0-0.5-1.1-1.2-1.6-1.2c-0.6,0-1.3,0.8-1.5,1.4C109.7,147.9,109.7,149.1,109.6,150.2z M119.8,149.4
		c-0.9-1.6-1.6-3.8-2.2-3.8c-2.4,0.1-1.6,2.3-1.6,3.7c0,1.3-0.5,3.3,1.5,3.4C118.1,152.7,118.9,150.7,119.8,149.4z M103.3,155.2
		c-0.3-0.1-0.7-0.1-1-0.2c-0.7,0.7-1.4,1.4-2.1,2c0.1,0.3,0.1,0.6,0.2,0.8c0.9,0,2.1,0.3,2.5-0.1
		C103.4,157.3,103.2,156.1,103.3,155.2z"/>
	<path class="st3" d="M62.5,228.9c-1.6-0.1-2.9-0.1-4.4-0.2c1.8-21.3,3.7-42.9,5.5-64.4c0.3,0,0.6-0.1,1-0.1
		c0.3,1.2,0.8,2.4,0.7,3.5c-0.6,13.9-1.2,27.7-1.9,41.6c-0.3,5.8-0.5,11.6-0.8,17.4C62.7,227.5,62.6,228.4,62.5,228.9z"/>
	<path class="st3" d="M66.6,162.8c4.8,0,9.6,0,14.4,0c20.7,0.1,41.4,0.1,62.1,0.3c1.3,0,2.6,0.5,4,0.7c0,0.3,0,0.6-0.1,0.9
		c-0.7,0.1-1.3,0.2-2,0.2c-25.2-0.1-50.5-0.2-75.7-0.3C68,164.6,66.6,164.9,66.6,162.8z"/>
	<path class="st2" d="M144.6,100.8c1.4-4,3.5-5.6,6.8-5.6c0.3,0,0.6-0.2,0.9-0.3c6.7-3.4,12.7-0.5,18.8,1.8c-4.5,0-9.2-0.5-13.6,0.1
		C153.3,97.5,149.2,99.4,144.6,100.8z"/>
	<path class="st2" d="M93.8,97.2c6.1-2.3,12.1-5,18.7-1.9c1.3,0.6,2.8,0.9,4.3,1.3c2.1,0.6,2.7,2.4,3.7,4.6
		c-1.4-0.3-2.4-0.2-3.1-0.6C109.8,96.7,102,95.9,93.8,97.2z"/>
	<path class="st2" d="M162.7,114.7c-0.1,1.2-0.2,2.3-0.3,3.3c1.1-0.1,2.2-0.3,3.7-0.5c1.7,2.5,1.3,6.1-1.4,8.4
		c-2.6,2.3-6.4,2.2-9-0.1c-2.5-2.2-3.1-5.8-1.3-8.7C156.3,114.2,159.8,113.3,162.7,114.7z"/>
	<path class="st2" d="M109.8,112.9c-0.1,0.7-0.1,1.3-0.2,1.9c0.3,0.2,0.4,0.4,0.5,0.3c2-0.2,2.2,0.9,1.9,2.4c-0.5,2.4-2.7,3.9-5,3.5
		c-2.5-0.5-4-3-3.3-5.5C104.4,113.1,106.6,112.1,109.8,112.9z"/>
	<text transform="matrix(1 0 0 1 97.4049 210.1667)" class="st4 st5 st6">S</text>
</g>
</svg>
